<svg aria-hidden="true" style="position: absolute; width: 0; height: 0; overflow: hidden;" version="1.1" xmlns="http://www.w3.org/2000/svg" xmlns:xlink="http://www.w3.org/1999/xlink">
<defs>
<symbol id="icon-cart" viewBox="0 0 32 32">
<path fill="#fff" style="fill: var(--color1, #fff)" d="M16 2.667c-7.36 0-13.333 5.973-13.333 13.333s5.973 13.333 13.333 13.333c7.36 0 13.333-5.973 13.333-13.333s-5.973-13.333-13.333-13.333zM9.427 24.373c0.573-1.2 4.067-2.373 6.573-2.373s6.013 1.173 6.573 2.373c-1.813 1.44-4.093 2.293-6.573 2.293s-4.76-0.853-6.573-2.293zM24.48 22.44c-1.907-2.32-6.533-3.107-8.48-3.107s-6.573 0.787-8.48 3.107c-1.36-1.787-2.187-4.013-2.187-6.44 0-5.88 4.787-10.667 10.667-10.667s10.667 4.787 10.667 10.667c0 2.427-0.827 4.653-2.187 6.44zM16 8c-2.587 0-4.667 2.080-4.667 4.667s2.080 4.667 4.667 4.667c2.587 0 4.667-2.080 4.667-4.667s-2.080-4.667-4.667-4.667zM16 14.667c-1.107 0-2-0.893-2-2s0.893-2 2-2c1.107 0 2 0.893 2 2s-0.893 2-2 2z"></path>
</symbol>
<symbol id="icon-instagram" viewBox="0 0 32 32">
<path fill="#fff" style="fill: var(--color1, #fff)" d="M10.4 2.667h11.2c4.271 0 7.733 3.462 7.733 7.733v11.2c0 4.271-3.462 7.733-7.733 7.733h-11.2c-4.271 0-7.733-3.462-7.733-7.733v-11.2c0-4.271 3.462-7.733 7.733-7.733zM10.133 5.333c-2.651 0-4.8 2.149-4.8 4.8v11.733c0 2.651 2.149 4.8 4.8 4.8h11.733c2.651 0 4.8-2.149 4.8-4.8v-11.733c0-2.651-2.149-4.8-4.8-4.8h-11.733zM23 7.333c0.921 0 1.667 0.746 1.667 1.667s-0.746 1.667-1.667 1.667c-0.921 0-1.667-0.746-1.667-1.667s0.746-1.667 1.667-1.667zM16 9.333c3.682 0 6.667 2.985 6.667 6.667s-2.985 6.667-6.667 6.667c-3.682 0-6.667-2.985-6.667-6.667s2.985-6.667 6.667-6.667zM16 12c-2.209 0-4 1.791-4 4s1.791 4 4 4 4-1.791 4-4c0-2.209-1.791-4-4-4z"></path>
</symbol>
<symbol id="icon-twitter" viewBox="0 0 32 32">
<path fill="#fff" style="fill: var(--color1, #fff)" d="M29.946 8.017c-1.026 0.455-2.129 0.763-3.286 0.901 1.181-0.708 2.089-1.83 2.516-3.166-1.106 0.656-2.33 1.132-3.634 1.389-1.044-1.112-2.531-1.807-4.177-1.807-3.16 0-5.722 2.562-5.722 5.722 0 0.448 0.051 0.885 0.148 1.304-4.756-0.239-8.972-2.517-11.794-5.979-0.493 0.845-0.775 1.828-0.775 2.877 0 1.985 1.010 3.737 2.546 4.763-0.938-0.030-1.82-0.287-2.592-0.716-0.001 0.024-0.001 0.048-0.001 0.072 0 2.773 1.972 5.085 4.59 5.611-0.48 0.131-0.986 0.201-1.508 0.201-0.369 0-0.727-0.036-1.077-0.103 0.728 2.273 2.841 3.928 5.345 3.974-1.958 1.535-4.426 2.45-7.107 2.45-0.462 0-0.917-0.027-1.365-0.080 2.532 1.624 5.54 2.571 8.772 2.571 10.525 0 16.281-8.719 16.281-16.281 0-0.248-0.006-0.495-0.017-0.74 1.118-0.807 2.088-1.815 2.855-2.962z"></path>
</symbol>
<symbol id="icon-pointer" viewBox="0 0 21 32">
<path fill="#fff" style="fill: var(--color1, #fff)" d="M21.333 21.333l-1.88-1.88-7.453 7.44v-26.893h-2.667v26.893l-7.44-7.453-1.893 1.893 10.667 10.667 10.667-10.667z"></path>
</symbol>
<symbol id="icon-Logo" viewBox="0 0 144 32">
<path fill="#fff" style="fill: var(--color1, #fff)" d="M1.28 30.667h11.861v-0.597c-4.267-0.555-5.547-2.347-5.547-6.656v-19.584h0.256l11.093 26.88h1.536l9.941-26.88h0.213v23.808c0 1.707-1.067 2.304-4.096 2.432v0.597h14.72v-0.597c-3.584-0.128-4.437-0.811-4.437-2.432v-23.68c0-1.621 0.853-2.347 4.437-2.475v-0.555h-10.88l-8.064 21.931h-0.213l-8.789-21.931h-12.032v0.555c3.669 0.085 5.248 2.048 5.248 4.608v17.323c0 4.309-1.237 6.144-5.248 6.656v0.597z"></path>
<path fill="#fff" style="fill: var(--color1, #fff)" d="M69.504 31.136h2.048v-22.997c0-4.224 1.152-6.059 5.163-6.656v-0.555h-12.117v0.555c4.309 0.512 5.888 2.432 5.888 6.656v14.165h-0.043l-16.427-21.376h-10.069v0.555c3.669 0.171 5.248 2.347 5.248 4.949v16.981c0 4.309-1.237 6.144-5.248 6.656v0.597h12.032v-0.597c-4.352-0.469-5.717-2.347-5.717-6.656v-17.109h0.043l19.2 24.832z"></path>
<path fill="#fff" style="fill: var(--color1, #fff)" d="M84.8 30.667h16.128v-0.597c-3.797-0.085-4.949-0.811-4.949-2.432v-25.941h1.024c3.285 0 5.845 3.285 8.832 9.088l0.64-0.085-0.213-9.771h-26.837l-0.256 9.771 0.64 0.085c3.029-5.931 5.632-9.088 8.875-9.088h1.067v25.941c0 1.621-1.195 2.347-4.949 2.432v0.597z"></path>
<path fill="#fff" style="fill: var(--color1, #fff)" d="M136.171 31.136h2.048v-22.997c0-4.224 1.152-6.059 5.163-6.656v-0.555h-12.117v0.555c4.309 0.512 5.888 2.432 5.888 6.656v14.165h-0.043l-16.427-21.376h-10.069v0.555c3.669 0.171 5.248 2.347 5.248 4.949v16.981c0 4.309-1.237 6.144-5.248 6.656v0.597h12.032v-0.597c-4.352-0.469-5.717-2.347-5.717-6.656v-17.109h0.043l19.2 24.832z"></path>
</symbol>
</defs>
</svg>